<svg width="13" height="20" viewBox="0 0 13 20" fill="none" xmlns="http://www.w3.org/2000/svg">
<path d="M11.4906 20.0008C11.3528 20.0016 11.2163 19.9763 11.0888 19.9266C10.9613 19.8768 10.8453 19.8035 10.7475 19.7108L0.532776 10.0008L10.7475 0.290793C10.9436 0.104542 11.2088 0 11.4853 0C11.7618 0 12.0271 0.104542 12.2232 0.290793C12.3213 0.383756 12.3991 0.494357 12.4523 0.616216C12.5054 0.738075 12.5328 0.868781 12.5328 1.00079C12.5328 1.1328 12.5054 1.26351 12.4523 1.38537C12.3991 1.50723 12.3213 1.61783 12.2232 1.71079L3.49463 10.0008L12.2232 18.2908C12.3702 18.4301 12.4706 18.6078 12.5118 18.8017C12.553 18.9955 12.5332 19.1966 12.4548 19.3796C12.3763 19.5627 12.2429 19.7194 12.0713 19.8299C11.8996 19.9405 11.6976 20 11.4906 20.0008V20.0008Z" fill="#0F1111"/>
</svg>