<svg width="13" height="20" viewBox="0 0 13 20" fill="none" xmlns="http://www.w3.org/2000/svg">
<path d="M1.93576 20C1.72877 19.9992 1.52669 19.9397 1.35506 19.8291C1.18344 19.7186 1.04998 19.5619 0.971567 19.3789C0.893151 19.1958 0.873297 18.9947 0.914518 18.8009C0.955738 18.6071 1.05618 18.4293 1.20314 18.2901L9.9317 10.0004L1.20314 1.71072C1.10505 1.61776 1.02719 1.50717 0.974054 1.38531C0.92092 1.26346 0.893564 1.13276 0.893564 1.00075C0.893564 0.868746 0.92092 0.738046 0.974054 0.616191C1.02719 0.494337 1.10505 0.38374 1.20314 0.290781C1.39924 0.104538 1.6645 0 1.94099 0C2.21748 0 2.48274 0.104538 2.67884 0.290781L12.8936 10.0004L2.67884 19.71C2.58104 19.8027 2.46506 19.876 2.33755 19.9258C2.21004 19.9755 2.07349 20.0007 1.93576 20Z" fill="#0F1111"/>
</svg>